<?xml version="1.0" standalone="no"?>
<!DOCTYPE svg PUBLIC "-//W3C//DTD SVG 20010904//EN"
 "http://www.w3.org/TR/2001/REC-SVG-20010904/DTD/svg10.dtd">
<svg version="1.0" xmlns="http://www.w3.org/2000/svg"
 width="512.000000pt" height="512.000000pt" viewBox="0 0 512.000000 512.000000"
 preserveAspectRatio="xMidYMid meet">
<metadata>
Created by potrace 1.14, written by Peter Selinger 2001-2017
</metadata>
<g transform="translate(0.000000,512.000000) scale(0.100000,-0.100000)"
fill="#000000" stroke="none">
<path d="M1425 4433 c-192 -40 -320 -109 -456 -243 -154 -152 -241 -325 -265
-528 -9 -76 -9 -2190 0 -2267 52 -447 432 -786 881 -788 159 -1 328 42 437
110 21 13 40 23 44 23 12 0 130 99 180 151 118 126 208 314 230 484 4 28 8
124 9 215 1 91 3 168 4 171 0 3 146 5 324 6 177 0 357 3 401 7 253 22 526 137
725 304 67 57 146 136 180 182 14 19 28 37 32 40 35 30 146 233 186 340 196
523 43 1123 -378 1479 -97 82 -129 106 -184 137 -110 61 -143 77 -213 103 -96
36 -174 57 -280 76 -117 20 -1757 20 -1857 -2z m1805 -737 c114 -31 188 -74
276 -161 64 -63 89 -97 118 -159 145 -306 28 -658 -269 -806 -127 -64 -170
-69 -574 -70 -346 -1 -374 -2 -435 -14 -263 -50 -500 -272 -564 -528 -22 -88
-24 -124 -27 -463 -3 -361 -8 -402 -56 -498 -31 -60 -91 -136 -109 -136 -19
-1 -86 89 -115 154 -50 113 -49 76 -50 1420 -1 693 0 1265 2 1270 2 7 287 10
871 9 792 -1 873 -2 932 -18z"/>
</g>
</svg>
